<?xml version="1.0" encoding="utf-8"?>
<!-- Generator: Adobe Illustrator 16.0.0, SVG Export Plug-In . SVG Version: 6.00 Build 0)  -->
<!DOCTYPE svg PUBLIC "-//W3C//DTD SVG 1.1//EN" "http://www.w3.org/Graphics/SVG/1.1/DTD/svg11.dtd">
<svg version="1.1" id="Layer_1" xmlns="http://www.w3.org/2000/svg" xmlns:xlink="http://www.w3.org/1999/xlink" x="0px" y="0px"
	 width="623.598px" height="151.48px" viewBox="0 0 623.598 151.48" enable-background="new 0 0 623.598 151.48"
	 xml:space="preserve">
<g>
	<linearGradient id="SVGID_1_" gradientUnits="userSpaceOnUse" x1="0" y1="75.7397" x2="280.7451" y2="75.7397">
		<stop  offset="0.0054" style="stop-color:#156A8D"/>
		<stop  offset="1" style="stop-color:#2CAAE1"/>
	</linearGradient>
	<path fill="url(#SVGID_1_)" d="M280.745,136.333c0,8.365-6.784,15.146-15.147,15.146H15.147C6.783,151.48,0,144.699,0,136.333
		V15.148C0,6.782,6.783,0,15.147,0h250.45c8.363,0,15.147,6.782,15.147,15.148V136.333z"/>
	<g>
		<path fill="#FFFFFF" d="M84.034,55.125l-17.136-3.275l-1.639,8.82l15.624,3.023c3.695,0.674,6.552,2.311,8.568,4.914
			c1.847,2.268,2.771,4.957,2.771,8.064c0,3.611-1.177,6.721-3.527,9.323c-2.521,2.856-5.755,4.284-9.702,4.284
			c-1.093,0-2.186-0.082-3.276-0.252l-15.624-3.023l-1.89,9.449c3.947,0.674,7.853,1.303,11.718,1.891
			c5.292,1.092,9.324,2.52,12.096,4.283c3.78,2.438,5.67,5.755,5.67,9.954c0,3.864-1.26,7.183-3.779,9.954
			c-2.521,2.771-5.714,4.158-9.576,4.158c-0.926,0-1.934-0.126-3.024-0.378l-31.878-6.183c-3.445-0.673-6.256-2.27-8.442-4.793
			c-2.183-2.522-3.276-5.466-3.276-8.83c0-1.008,0.084-2.018,0.252-3.027l13.23-68.123c0.756-3.699,2.331-6.791,4.725-9.271
			s5.481-3.723,9.261-3.723c1.091,0,2.184,0.128,3.276,0.38L89.2,28.689c3.61,0.76,6.426,2.403,8.441,4.934
			c1.765,2.275,2.646,4.932,2.646,7.967c0,3.711-1.178,6.873-3.528,9.486c-2.438,2.953-5.629,4.428-9.576,4.428
			C86.176,55.503,85.125,55.376,84.034,55.125z"/>
		<path fill="#FFFFFF" d="M169.461,113.085c-0.421,4.283-1.996,7.643-4.725,10.079c-2.731,2.436-5.902,3.654-9.514,3.654
			c-4.453,0-7.981-1.765-10.584-5.292c-4.788,2.939-10.08,4.158-15.876,3.654c-9.66-0.841-17.431-5.209-23.31-13.104
			c-5.292-7.139-7.938-15.454-7.938-24.948c0-10.584,2.983-19.908,8.946-27.972c6.635-8.903,15.12-13.356,25.452-13.356
			c5.544,0,10.667,1.26,15.372,3.78c0.335-4.199,0.63-8.356,0.882-12.474c0.671-5.544,2.016-9.702,4.032-12.475
			c2.603-3.61,6.467-5.207,11.592-4.787c4.032,0.336,7.202,2.037,9.513,5.103c2.31,3.067,3.255,6.7,2.835,10.899L169.461,113.085z
			 M135.819,72.134c-2.689-0.167-5.04,0.967-7.057,3.402c-2.016,2.438-3.193,5.629-3.527,9.576
			c-0.422,4.369,0.293,7.855,2.142,10.458c1.847,2.604,4.114,3.905,6.804,3.905c2.436,0,4.6-1.152,6.489-3.465
			c1.89-2.309,3.044-5.606,3.465-9.891c0.335-3.947-0.273-7.201-1.827-9.765C140.753,73.794,138.591,72.386,135.819,72.134z"/>
		<path fill="#FFFFFF" d="M220.994,125.558c-10.584,0.588-19.132-1.764-25.641-7.055c-6.511-5.293-10.018-12.727-10.521-22.303
			l-1.638-32.634c-0.252-4.87,1.049-8.735,3.906-11.593c2.687-2.602,5.963-3.905,9.827-3.905c3.611,0,6.679,1.134,9.198,3.401
			c2.854,2.605,4.367,6.133,4.536,10.584l1.764,32.383c0.252,4.453,2.562,6.678,6.931,6.678c1.931,0,3.61-0.672,5.04-2.016
			c1.427-1.344,2.099-3.15,2.016-5.418l-1.764-32.383c-0.252-4.787,1.091-8.609,4.032-11.465c2.603-2.688,5.837-4.033,9.701-4.033
			c3.611,0,6.679,1.178,9.198,3.528c2.854,2.604,4.41,6.133,4.662,10.584l1.764,32.761c0.42,9.575-2.311,17.305-8.189,23.184
			C239.936,121.736,231.661,124.97,220.994,125.558z"/>
	</g>
	<g>
		<path d="M322.943,43.171c0.811,0,1.502,0.322,2.074,0.966c0.571,0.644,1.048,1.43,1.43,2.359c0.381,0.929,0.69,1.931,0.93,3.003
			c0.237,1.072,0.429,2.014,0.572,2.824c1.001-1.191,2.108-2.371,3.324-3.539s2.585-2.217,4.111-3.146
			c1.525-0.93,3.229-1.68,5.112-2.252c1.883-0.572,3.968-0.857,6.256-0.857c2.432,0,4.767,0.298,7.007,0.893
			c2.24,0.598,4.29,1.395,6.149,2.396c1.859,1,3.527,2.169,5.005,3.503c1.478,1.335,2.692,2.765,3.646,4.29
			c1.145-1.62,2.467-3.134,3.969-4.541c1.501-1.404,3.146-2.633,4.934-3.682c1.787-1.048,3.682-1.859,5.684-2.432
			c2.002-0.571,4.076-0.857,6.221-0.857c4.814,0,8.984,0.775,12.513,2.324c3.526,1.549,6.446,3.658,8.759,6.328
			c2.312,2.67,4.051,5.826,5.22,9.473c1.167,3.646,1.823,7.543,1.966,11.69c0.047,1.097,0.071,2.157,0.071,3.183s0,2.085,0,3.182
			v30.888c0,1.335-0.418,2.372-1.251,3.11c-0.835,0.739-1.871,1.107-3.11,1.107h-10.797c-3.051,0-4.575-1.357-4.575-4.075V73.703
			c0-1.764-0.239-3.432-0.716-5.006c-0.477-1.572-1.18-2.932-2.108-4.075c-0.93-1.144-2.063-2.049-3.396-2.717
			c-1.335-0.667-2.86-1.001-4.576-1.001c-1.669,0-3.302,0.322-4.897,0.965c-1.598,0.645-3.016,1.537-4.255,2.682
			s-2.241,2.491-3.003,4.039c-0.763,1.551-1.144,3.207-1.144,4.97v35.679c0,1.335-0.394,2.359-1.18,3.074
			c-0.787,0.715-1.8,1.072-3.039,1.072H358.05c-1.383,0-2.384-0.345-3.003-1.036c-0.62-0.69-0.929-1.704-0.929-3.039V73.058
			c0-1.905-0.299-3.621-0.895-5.147c-0.597-1.524-1.406-2.8-2.431-3.825c-1.025-1.024-2.252-1.811-3.683-2.359
			c-1.43-0.547-3.003-0.822-4.719-0.822c-1.621,0-3.206,0.322-4.755,0.965c-1.549,0.645-2.92,1.526-4.111,2.646
			s-2.157,2.43-2.896,3.932c-0.739,1.502-1.108,3.135-1.108,4.898v36.25c0,1.098-0.334,2.002-1.001,2.717
			c-0.668,0.715-1.549,1.072-2.646,1.072h-12.227c-1.383,0-2.407-0.368-3.074-1.107c-0.668-0.738-1.001-1.681-1.001-2.824V47.605
			c0-1.287,0.44-2.348,1.322-3.182s1.752-1.252,2.61-1.252H322.943z"/>
		<path d="M430.121,78.493c0-5.052,0.94-9.783,2.824-14.192c1.883-4.408,4.456-8.223,7.722-11.44
			c3.265-3.218,7.09-5.755,11.477-7.614c4.385-1.859,9.104-2.789,14.156-2.789c5.005,0,9.688,0.93,14.05,2.789
			s8.175,4.396,11.44,7.614c3.265,3.218,5.838,7.032,7.722,11.44c1.883,4.409,2.824,9.141,2.824,14.192
			c0,5.054-0.941,9.784-2.824,14.192c-1.884,4.41-4.457,8.235-7.722,11.477c-3.266,3.242-7.079,5.803-11.44,7.686
			s-9.045,2.824-14.05,2.824c-5.053,0-9.771-0.941-14.156-2.824c-4.387-1.883-8.212-4.443-11.477-7.686
			c-3.266-3.241-5.839-7.066-7.722-11.477C431.062,88.277,430.121,83.546,430.121,78.493z M450.213,78.493
			c0,2.431,0.368,4.696,1.108,6.792c0.738,2.099,1.798,3.934,3.182,5.506c1.382,1.573,3.062,2.801,5.04,3.683
			c1.978,0.882,4.184,1.323,6.614,1.323c2.383,0,4.54-0.441,6.471-1.323s3.563-2.109,4.897-3.683
			c1.334-1.572,2.359-3.407,3.075-5.506c0.715-2.096,1.072-4.361,1.072-6.792c0-2.335-0.357-4.563-1.072-6.685
			c-0.716-2.121-1.741-3.992-3.075-5.613c-1.335-1.62-2.967-2.896-4.897-3.825c-1.931-0.93-4.088-1.395-6.471-1.395
			c-2.431,0-4.637,0.465-6.614,1.395c-1.979,0.929-3.658,2.205-5.04,3.825c-1.384,1.621-2.443,3.492-3.182,5.613
			C450.581,73.929,450.213,76.158,450.213,78.493z"/>
		<path d="M517.279,23.867c0-1.145,0.357-2.084,1.072-2.824c0.715-0.738,1.811-1.203,3.289-1.395l11.011-1.573
			c0.19-0.047,0.369-0.071,0.536-0.071s0.322,0,0.465,0c1.382,0,2.299,0.406,2.753,1.215c0.452,0.812,0.679,1.835,0.679,3.075V43.1
			h8.58c1.191,0,2.146,0.358,2.86,1.073s1.072,1.764,1.072,3.146v7.864c0,1.527-0.357,2.646-1.072,3.361s-1.669,1.072-2.86,1.072
			h-8.58v49.55c0,1.383-0.405,2.431-1.215,3.146c-0.812,0.715-1.931,1.072-3.36,1.072h-11.012c-2.813,0-4.218-1.404-4.218-4.218
			v-49.55h-3.861c-2.813,0-4.219-1.477-4.219-4.434v-7.864c0-2.812,1.405-4.219,4.219-4.219h3.861V23.867z"/>
		<path d="M590.923,98.012c2.049,0,4.206-0.368,6.471-1.108c2.263-0.738,4.42-1.87,6.471-3.396c0.667-0.381,1.251-0.715,1.752-1
			c0.5-0.287,1.06-0.43,1.68-0.43c0.524,0,1.024,0.119,1.502,0.357c0.476,0.239,0.929,0.668,1.358,1.287l5.291,7.222
			c0.618,0.812,0.93,1.645,0.93,2.503c0,0.763-0.239,1.478-0.716,2.145c-0.477,0.668-1.072,1.264-1.787,1.787
			c-1.479,1.145-3.123,2.17-4.934,3.074c-1.813,0.906-3.718,1.681-5.72,2.324s-4.028,1.132-6.078,1.466
			c-2.05,0.333-4.075,0.501-6.077,0.501c-4.862,0-9.414-0.942-13.656-2.824c-4.243-1.883-7.961-4.457-11.154-7.723
			c-3.194-3.264-5.709-7.102-7.543-11.512c-1.836-4.408-2.753-9.162-2.753-14.264c0-4.909,0.869-9.568,2.609-13.979
			c1.74-4.408,4.147-8.27,7.222-11.583c3.074-3.313,6.696-5.935,10.868-7.864c4.171-1.932,8.688-2.896,13.549-2.896
			c4.576,0,8.878,0.871,12.906,2.609c4.027,1.741,7.566,4.111,10.618,7.115c3.05,3.002,5.457,6.555,7.221,10.652
			c1.764,4.101,2.646,8.51,2.646,13.229v0.429c0,1.812-0.214,3.302-0.644,4.469c-0.429,1.169-1.084,2.086-1.966,2.753
			c-0.883,0.668-1.979,1.133-3.289,1.395c-1.312,0.262-2.849,0.393-4.611,0.393H575.05c0.476,2.002,1.251,3.802,2.323,5.398
			c1.072,1.598,2.324,2.943,3.754,4.039c1.43,1.098,2.991,1.943,4.684,2.539C587.502,97.715,589.206,98.012,590.923,98.012z
			 M605.294,70.914c-0.334-1.668-0.954-3.24-1.859-4.719c-0.905-1.477-2.026-2.753-3.36-3.825c-1.335-1.073-2.836-1.919-4.504-2.538
			c-1.669-0.619-3.433-0.93-5.291-0.93c-1.669,0-3.302,0.275-4.898,0.822c-1.598,0.549-3.063,1.335-4.396,2.359
			c-1.335,1.025-2.479,2.277-3.433,3.754c-0.954,1.479-1.621,3.17-2.002,5.076H605.294z"/>
	</g>
</g>
</svg>
