<?xml version="1.0" encoding="iso-8859-1"?>
<!-- Generator: Adobe Illustrator 19.0.0, SVG Export Plug-In . SVG Version: 6.00 Build 0)  -->
<svg xmlns="http://www.w3.org/2000/svg" xmlns:xlink="http://www.w3.org/1999/xlink" version="1.1" id="Layer_1" x="0px" y="0px" viewBox="0 0 512 512" style="enable-background:new 0 0 512 512;" xml:space="preserve" width="512px" height="512px">
<g>
	<g>
		<g>
			<path d="M361.931,194.207c-34.074,0-61.793,27.719-61.793,61.793s27.719,61.793,61.793,61.793s61.793-27.719,61.793-61.793     S396.005,194.207,361.931,194.207z" fill="#00adef"/>
			<path d="M256,220.69c34.074,0,61.793-27.719,61.793-61.793c0-34.074-27.719-61.793-61.793-61.793s-61.793,27.719-61.793,61.793     C194.207,192.971,221.926,220.69,256,220.69z" fill="#00adef"/>
			<path d="M150.069,123.586c34.074,0,61.793-27.719,61.793-61.793S184.143,0,150.069,0S88.276,27.719,88.276,61.793     S115.995,123.586,150.069,123.586z" fill="#00adef"/>
			<path d="M256,291.31c-34.074,0-61.793,27.719-61.793,61.793c0,34.074,27.719,61.793,61.793,61.793s61.793-27.719,61.793-61.793     C317.793,319.029,290.074,291.31,256,291.31z" fill="#00adef"/>
			<path d="M150.069,388.414c-34.074,0-61.793,27.719-61.793,61.793c0,34.074,27.719,61.793,61.793,61.793     s61.793-27.719,61.793-61.793C211.862,416.132,184.143,388.414,150.069,388.414z" fill="#00adef"/>
		</g>
	</g>
</g>
<g>
</g>
<g>
</g>
<g>
</g>
<g>
</g>
<g>
</g>
<g>
</g>
<g>
</g>
<g>
</g>
<g>
</g>
<g>
</g>
<g>
</g>
<g>
</g>
<g>
</g>
<g>
</g>
<g>
</g>
</svg>
